<svg width="1920" height="1348" viewBox="0 0 1920 1348" fill="none" xmlns="http://www.w3.org/2000/svg">
<g clip-path="url(#clip0_6_421)">
<rect width="3195.26" height="1348" transform="translate(-638)" fill="#121214"/>
<g opacity="0.1">
<path fill-rule="evenodd" clip-rule="evenodd" d="M2165.02 56.7635C2165.02 56.7635 2231.5 116.307 2271.01 139.458C2310.52 162.609 2332.17 152.688 2332.17 152.688C2332.17 152.688 2367.06 162.868 2388.41 179.279C2409.75 195.691 2413.22 208.153 2426.45 224.694C2439.69 241.235 2480.12 236.702 2480.12 236.702L2572.31 284.54L2666.01 336.641C2666.01 336.641 2573.31 282.312 2563.51 265.771C2553.71 249.23 2477.57 189.081 2464.34 172.54C2451.11 155.999 2432.91 159.309 2419.68 136.158C2406.45 113.007 2391.57 86.5352 2370.06 66.6946C2348.56 46.8433 2303.95 17.0716 2279.94 3.84101C2255.94 -9.38963 2217.9 -22.6202 2217.9 -22.6202L2151.75 -37.506L2087.25 -72.7625H1791.2C1791.2 -72.7625 1936.41 27.0028 2002.4 51.8088C2027.37 61.1882 2165.03 56.7744 2165.03 56.7744L2165.02 56.7635Z" fill="#633BBC"/>
<path fill-rule="evenodd" clip-rule="evenodd" d="M699.107 365.113C699.107 365.113 749.141 397.827 763.129 409.813C777.117 421.8 823.062 427.133 832.062 430.465C841.063 433.797 862.635 463.774 862.635 463.774C862.635 463.774 875.065 485.941 878.04 501.833C881.026 517.725 920.923 535.715 920.923 535.715L958.776 551.705C958.776 551.705 900.12 485.757 893.575 469.778C887.019 453.789 895.046 439.141 878.051 430.476C861.044 421.821 819.708 407.834 815.402 391.844C811.097 375.855 743.819 319.903 722.507 309.918C701.195 299.922 637.984 275.949 637.984 275.949C637.984 275.949 679.05 343.152 699.118 365.134L699.107 365.113Z" fill="#633BBC"/>
<path fill-rule="evenodd" clip-rule="evenodd" d="M-404.098 716.811C-404.098 716.811 -322.561 789.844 -274.096 818.253C-225.63 846.651 -199.061 834.48 -199.061 834.48C-199.061 834.48 -156.264 846.964 -130.084 867.097C-103.904 887.229 -99.6417 902.516 -83.4144 922.81C-67.1871 943.095 -17.5858 937.534 -17.5858 937.534L95.4858 996.212L210.429 1060.11C210.429 1060.11 96.7191 993.475 84.7001 973.191C72.6703 952.907 -20.723 879.116 -36.9503 858.832C-53.1776 838.548 -75.4955 842.605 -91.7228 814.196C-107.95 785.798 -126.211 753.333 -152.586 728.992C-178.961 704.651 -233.69 668.129 -263.126 651.902C-292.573 635.674 -339.232 619.436 -339.232 619.436L-420.379 601.175L-499.503 557.924H-862.67C-862.67 557.924 -684.548 680.299 -603.596 710.731C-572.98 722.241 -404.098 716.822 -404.098 716.822V716.811Z" fill="#633BBC"/>
<path fill-rule="evenodd" clip-rule="evenodd" d="M429.009 -33.721C429.009 -33.721 522.369 35.948 565.415 54.3065C565.415 54.3065 619.257 50.2821 626.538 54.3065C633.818 58.3308 665.797 78.1714 669.107 85.8955C672.418 93.6089 674.624 110.15 681.234 117.874C687.855 125.587 747.388 154.256 768.342 157.566C789.297 160.876 840.013 170.797 849.933 177.417C859.853 184.038 856.554 199.465 862.06 207.189C867.578 214.902 900.649 228.144 913.879 236.961C927.11 245.777 968.446 243.581 980.855 249.088C993.263 254.605 1019.72 271.135 1019.72 271.135L1029.63 279.952C1029.63 279.952 1024.11 298.7 1029.63 304.206C1035.16 309.724 1058.31 314.127 1058.31 314.127C1058.31 314.127 1040.67 296.482 1040.67 285.458C1040.67 274.435 1029.63 265.607 1029.63 265.607C1029.63 265.607 974.515 240.249 966.791 233.629C959.078 227.008 889.603 169.672 884.097 159.751C878.58 149.831 866.453 122.266 859.843 114.542C853.222 106.829 790.379 90.2877 774.942 83.667C759.504 77.0463 739.642 57.2057 730.273 40.6647C720.916 24.1237 703.271 -21.6588 697.754 -27.6953C692.236 -33.7319 680.109 -33.7319 680.109 -33.7319H428.987L429.009 -33.721Z" fill="#633BBC"/>
<path fill-rule="evenodd" clip-rule="evenodd" d="M1360.24 474.032C1360.24 474.032 1410.27 506.746 1424.26 518.732C1438.25 530.719 1484.2 536.052 1493.2 539.384C1502.2 542.716 1523.77 572.694 1523.77 572.694C1523.77 572.694 1536.2 594.86 1539.17 610.752C1542.16 626.644 1582.06 644.634 1582.06 644.634L1619.91 660.624C1619.91 660.624 1561.25 594.676 1554.71 578.698C1548.15 562.708 1556.18 548.061 1539.18 539.395C1522.18 530.741 1480.84 516.753 1476.54 500.764C1472.23 484.774 1404.95 428.823 1383.64 418.837C1362.33 408.841 1299.12 384.868 1299.12 384.868C1299.12 384.868 1340.18 452.071 1360.25 474.053L1360.24 474.032Z" fill="#633BBC"/>
<path fill-rule="evenodd" clip-rule="evenodd" d="M1372.95 107.932C1372.95 107.932 1439.43 167.476 1478.93 190.626C1518.44 213.777 1540.1 203.857 1540.1 203.857C1540.1 203.857 1574.99 214.037 1596.33 230.448C1617.68 246.859 1614.37 276.631 1627.6 293.172C1640.83 309.713 1695.41 298.138 1695.41 298.138L1777.19 388.48L1831.25 445.33C1831.25 445.33 1772.9 369.245 1763.1 352.715C1753.29 336.174 1685.49 240.249 1672.24 223.708C1659.01 207.167 1640.82 210.478 1627.59 187.327C1614.36 164.176 1599.47 137.704 1577.96 117.863C1556.47 98.012 1511.85 68.2404 1487.85 55.0098C1463.84 41.7791 1425.81 28.5485 1425.81 28.5485L1359.65 13.6627L1295.15 -21.5938H999.105C999.105 -21.5938 1144.32 78.1715 1210.31 102.978C1235.28 112.357 1372.94 107.943 1372.94 107.943L1372.95 107.932Z" fill="#633BBC"/>
<path fill-rule="evenodd" clip-rule="evenodd" d="M1634.64 -11.554C1634.64 -11.554 1670.62 39.7134 1696.39 54.5992C1722.15 69.485 1754.72 75.8245 1766.9 90.7103C1779.09 105.596 1826.22 139.63 1826.22 139.63L1893.9 167.617C1893.9 167.617 1801.76 89.7259 1791.67 71.6054C1781.57 53.4958 1754.47 38.6099 1754.47 38.6099L1634.64 -11.554Z" fill="#633BBC"/>
<path fill-rule="evenodd" clip-rule="evenodd" d="M-675.447 291.151C-675.447 291.151 -559.682 374.895 -536.444 395.039C-513.207 415.182 -450.786 413.657 -430.123 434.795C-409.461 455.934 -372.408 465.194 -346.466 493.917C-320.524 522.628 -234.606 543.788 -205.322 577.671C-176.026 611.553 -126.208 625.433 -101.099 640.73C-75.9903 656.027 1.82489 693.079 1.82489 693.079C1.82489 693.079 -93.1696 648.617 -108.661 604.154C-124.153 559.691 -115.358 504.28 -115.358 504.28C-115.358 504.28 -95.4522 499.921 -115.358 463.106C-135.263 426.292 -118.636 402.828 -143.626 371.952C-168.616 341.077 -180.57 285.494 -163.477 259.562C-146.384 233.631 -106.562 157.493 -115.358 112.197C-124.153 66.8906 -46.8461 33.549 -46.8461 33.549C-46.8461 33.549 70.0551 44.6701 84.108 63.1908C98.1608 81.7224 201.042 112.197 201.042 112.197C201.042 112.197 283.249 116.741 294.457 112.197C305.653 107.654 340.888 137.295 369.589 163.227C398.289 189.169 403.883 173.363 443.737 201.123C483.602 228.882 491.218 270.792 514.087 291.162C514.087 291.162 488.491 246.429 480.443 201.123C480.443 201.123 521.39 205.634 551.031 213.044C580.673 220.455 594.877 218.81 615.356 234.453C635.835 250.097 658.38 259.973 658.38 259.973C658.38 259.973 623.697 228.687 615.356 211.389C607.015 194.102 600.427 176.803 589.728 170.215C579.029 163.627 457.919 133.076 426.893 118.71C395.866 104.343 369.589 57.0028 369.589 57.0028C369.589 57.0028 298.578 -42.7625 253.78 -44.277C208.982 -45.7915 130.453 -67.3522 101.861 -87.5064C73.2682 -107.661 -21.088 -222.171 -21.088 -222.171H-659.696L-675.447 291.151Z" fill="#633BBC"/>
<path fill-rule="evenodd" clip-rule="evenodd" d="M348.934 491.641C348.934 491.641 398.968 524.355 412.956 536.342C426.944 548.328 472.888 553.662 481.889 556.994C490.89 560.326 512.461 590.303 512.461 590.303C512.461 590.303 524.891 612.469 527.866 628.361C530.852 644.253 570.75 662.244 570.75 662.244L608.603 678.233C608.603 678.233 549.946 612.285 543.401 596.307C536.846 580.318 544.873 565.67 527.877 557.005C510.871 548.35 469.535 534.362 465.229 518.373C460.924 502.384 393.645 446.432 372.333 436.447C351.022 426.451 287.811 402.478 287.811 402.478C287.811 402.478 328.877 469.68 348.945 491.663L348.934 491.641Z" fill="#633BBC"/>
</g>
<path d="M1663.88 22.8575C1662.37 22.8575 1661.14 21.4597 1661.14 19.7354C1661.14 18.011 1662.37 16.6131 1663.88 16.6131C1665.4 16.6131 1666.63 18.011 1666.63 19.7354C1666.63 21.4597 1665.4 22.8575 1663.88 22.8575Z" fill="white"/>
<path d="M1578.23 14.545C1578.23 15.6735 1579.05 16.6138 1580.07 16.6138C1581.08 16.6138 1581.91 15.6735 1581.91 14.545C1581.91 13.4165 1581.08 12.4761 1580.07 12.4761C1579.05 12.4761 1578.23 13.4165 1578.23 14.545Z" fill="white"/>
<path d="M1626.74 379.24C1625.38 378.488 1623.73 379.127 1623.05 380.669C1622.37 382.212 1622.94 384.093 1624.33 384.845C1625.72 385.597 1627.34 384.958 1628.01 383.415C1628.69 381.873 1628.13 379.992 1626.74 379.24Z" fill="white"/>
<path d="M1561.46 96.6633C1560.56 96.1743 1559.43 96.5881 1558.98 97.6038C1558.52 98.6194 1558.9 99.8607 1559.8 100.387C1560.71 100.876 1561.83 100.463 1562.28 99.447C1562.74 98.4313 1562.36 97.19 1561.46 96.6633Z" fill="white"/>
<g opacity="0.64">
<path d="M1720.95 220.502C1721.06 219.749 1720.61 219.072 1719.97 218.922C1719.33 218.809 1718.69 219.298 1718.58 220.013C1718.47 220.765 1718.92 221.442 1719.56 221.593C1720.2 221.743 1720.83 221.216 1720.95 220.502Z" fill="white"/>
<path d="M1756.11 229.604C1756.19 229.115 1755.89 228.663 1755.48 228.55C1755.02 228.475 1754.61 228.814 1754.54 229.303C1754.46 229.792 1754.76 230.243 1755.17 230.356C1755.63 230.431 1756.04 230.093 1756.11 229.604Z" fill="white"/>
<path d="M1845.99 228.997C1846.97 229.787 1848.32 229.524 1849 228.433C1849.71 227.342 1849.49 225.837 1848.51 225.047C1847.53 224.257 1846.18 224.52 1845.5 225.611C1844.79 226.702 1845.01 228.207 1845.99 228.997Z" fill="white"/>
<path d="M1708.87 127.844C1709.5 128.371 1710.41 128.22 1710.9 127.468C1711.35 126.753 1711.23 125.738 1710.56 125.211C1709.92 124.685 1709.02 124.835 1708.53 125.587C1708.08 126.302 1708.19 127.318 1708.87 127.844Z" fill="white"/>
<path d="M1649.65 141.238C1650.59 141.238 1651.34 140.336 1651.34 139.245C1651.34 138.154 1650.52 137.326 1649.58 137.364C1648.64 137.364 1647.88 138.267 1647.88 139.357C1647.88 140.448 1648.71 141.276 1649.65 141.238Z" fill="white"/>
</g>
<g opacity="0.64">
</g>
<g opacity="0.64">
<path d="M804.574 252.065C805.176 252.704 806.191 252.855 806.83 252.328C807.47 251.839 807.507 250.899 806.868 250.221C806.266 249.582 805.251 249.432 804.612 249.958C803.973 250.447 803.935 251.388 804.574 252.065Z" fill="white"/>
<path d="M707.838 235.699C708.252 236.15 708.929 236.226 709.342 235.887C709.756 235.549 709.793 234.909 709.342 234.495C708.929 234.044 708.252 233.969 707.838 234.307C707.425 234.646 707.387 235.285 707.838 235.699Z" fill="white"/>
<path d="M802.222 358.822C801.395 358.972 800.906 359.762 801.17 360.59C801.433 361.417 802.335 361.906 803.162 361.756C803.99 361.605 804.478 360.816 804.215 359.988C803.952 359.16 803.05 358.671 802.222 358.822Z" fill="white"/>
<path d="M601.229 348.517C600.665 348.63 600.365 349.157 600.553 349.684C600.741 350.21 601.342 350.586 601.869 350.474C602.433 350.361 602.734 349.834 602.546 349.307C602.358 348.781 601.756 348.405 601.229 348.517Z" fill="white"/>
<path d="M935.938 246.424C935.223 247.327 935.449 248.681 936.502 249.471C937.554 250.261 938.983 250.186 939.698 249.283C940.412 248.38 940.186 247.026 939.134 246.236C938.081 245.446 936.652 245.522 935.938 246.424Z" fill="white"/>
</g>
<g opacity="0.64">
<path d="M338.806 352.301C338.242 352.94 338.205 353.956 338.806 354.595C339.408 355.235 340.273 355.272 340.874 354.595C341.438 353.956 341.476 352.94 340.874 352.301C340.31 351.661 339.408 351.624 338.806 352.301Z" fill="white"/>
<path d="M344.252 253.06C343.876 253.474 343.876 254.151 344.252 254.602C344.628 255.016 345.23 255.054 345.606 254.602C345.982 254.188 345.982 253.474 345.606 253.06C345.23 252.646 344.628 252.608 344.252 253.06Z" fill="white"/>
<path d="M229.608 327.057C229.345 326.192 228.555 325.74 227.766 326.003C227.014 326.267 226.6 327.207 226.826 328.072C227.089 328.938 227.879 329.389 228.668 329.126C229.42 328.862 229.834 327.922 229.608 327.057Z" fill="white"/>
<path d="M222.665 145.1C222.515 144.536 221.951 144.235 221.462 144.423C220.973 144.611 220.672 145.213 220.86 145.815C221.011 146.379 221.575 146.68 222.064 146.492C222.552 146.304 222.853 145.702 222.665 145.1Z" fill="white"/>
<path d="M315.252 443.657C314.312 442.905 312.996 443.205 312.356 444.259C311.717 445.312 311.943 446.779 312.883 447.531C313.823 448.284 315.139 447.983 315.778 446.93C316.417 445.876 316.192 444.409 315.252 443.657Z" fill="white"/>
</g>
<g opacity="0.64">
<path d="M617.868 104.625C617.755 105.377 618.207 106.054 618.846 106.205C619.485 106.318 620.124 105.829 620.237 105.114C620.35 104.362 619.899 103.684 619.259 103.534C618.62 103.384 617.981 103.91 617.868 104.625Z" fill="white"/>
<path d="M582.686 95.5262C582.611 96.0152 582.911 96.4666 583.325 96.5794C583.776 96.6547 584.19 96.3162 584.265 95.8272C584.34 95.3381 584.039 94.8867 583.626 94.7739C583.175 94.6987 582.761 95.0371 582.686 95.5262Z" fill="white"/>
<path d="M492.816 96.1643C491.839 95.3743 490.485 95.6376 489.808 96.7285C489.094 97.8194 489.32 99.324 490.297 100.114C491.275 100.904 492.628 100.641 493.305 99.5498C494.02 98.4589 493.794 96.9542 492.816 96.1643Z" fill="white"/>
<path d="M533.725 39.3218C533.086 38.7952 532.184 38.9457 531.695 39.698C531.244 40.4128 531.356 41.4284 532.033 41.9551C532.672 42.4817 533.575 42.3312 534.064 41.5789C534.552 40.8265 534.402 39.8485 533.725 39.3218Z" fill="white"/>
<path d="M713.196 212.626C712.256 212.626 711.504 213.529 711.504 214.62C711.504 215.711 712.331 216.538 713.271 216.501C714.211 216.501 714.963 215.598 714.963 214.507C714.963 213.416 714.136 212.589 713.196 212.626Z" fill="white"/>
<path d="M428.199 342.413C426.994 342.413 426.018 341.318 426.018 339.968C426.018 338.618 426.994 337.523 428.199 337.523C429.403 337.523 430.38 338.618 430.38 339.968C430.38 341.318 429.403 342.413 428.199 342.413Z" fill="white"/>
<path d="M318.634 45.5307C318.634 42.8222 316.679 40.6405 314.272 40.6405C311.866 40.6405 309.911 42.8222 309.911 45.5307C309.911 48.2391 311.866 50.4209 314.272 50.4209C316.679 50.4209 318.634 48.2391 318.634 45.5307Z" fill="white"/>
</g>
<g opacity="0.64">
<path d="M1890.06 649.329C1889.87 648.615 1889.2 648.126 1888.56 648.276C1887.92 648.426 1887.54 649.104 1887.73 649.818C1887.92 650.533 1888.59 651.022 1889.23 650.872C1889.87 650.721 1890.25 650.044 1890.06 649.329Z" fill="white"/>
<path d="M1759.59 587.642C1760.45 587.229 1760.79 586.138 1760.34 585.16C1759.89 584.182 1758.84 583.73 1757.97 584.106C1757.11 584.52 1756.77 585.611 1757.22 586.589C1757.67 587.567 1758.72 588.019 1759.59 587.642Z" fill="white"/>
</g>
<g opacity="0.64">
<path d="M568.747 609.747C568.446 608.129 567.319 607.038 566.266 607.377C565.213 607.678 564.574 609.295 564.912 610.913C565.251 612.53 566.341 613.621 567.394 613.283C568.446 612.944 569.086 611.364 568.747 609.747Z" fill="white"/>
<path d="M627.674 597.368C627.486 596.277 626.734 595.562 626.019 595.788C625.305 596.014 624.891 597.067 625.117 598.158C625.305 599.249 626.057 599.964 626.771 599.738C627.485 599.512 627.899 598.459 627.674 597.368Z" fill="white"/>
<path d="M762.698 516.01C764.653 516.8 766.533 515.069 766.871 512.173C767.21 509.276 765.894 506.304 763.939 505.515C761.983 504.725 760.103 506.455 759.765 509.352C759.427 512.248 760.743 515.22 762.698 516.01Z" fill="white"/>
<path d="M738.072 670.759C739.388 671.285 740.629 670.119 740.855 668.201C741.08 666.282 740.215 664.289 738.899 663.762C737.583 663.235 736.342 664.401 736.117 666.32C735.891 668.238 736.756 670.232 738.072 670.759Z" fill="white"/>
<path d="M155.541 550.05C156.97 549.147 157.534 546.627 156.782 544.407C156.03 542.188 154.3 541.135 152.872 542.038C151.443 542.94 150.879 545.461 151.631 547.68C152.383 549.899 154.113 550.953 155.541 550.05Z" fill="white"/>
</g>
<g opacity="0.64">
<path d="M1203.88 376.907C1204.52 376.493 1204.75 375.703 1204.41 375.139C1204.07 374.575 1203.28 374.424 1202.64 374.838C1202 375.252 1201.78 376.042 1202.12 376.606C1202.45 377.17 1203.24 377.321 1203.88 376.907Z" fill="white"/>
<path d="M1220.39 409.147C1220.8 408.883 1220.95 408.357 1220.72 407.98C1220.5 407.604 1219.97 407.529 1219.56 407.792C1219.14 408.056 1218.99 408.582 1219.22 408.959C1219.45 409.335 1219.97 409.41 1220.39 409.147Z" fill="white"/>
<path d="M1280.55 475.574C1280.59 476.816 1281.68 477.643 1282.96 477.455C1284.24 477.267 1285.25 476.064 1285.18 474.822C1285.14 473.581 1284.05 472.753 1282.77 472.941C1281.49 473.129 1280.48 474.333 1280.55 475.574Z" fill="white"/>
<path d="M1210.69 482.876C1210.69 483.704 1211.44 484.268 1212.3 484.117C1213.17 483.967 1213.81 483.214 1213.81 482.387C1213.81 481.559 1213.06 480.995 1212.19 481.146C1211.33 481.296 1210.69 482.048 1210.69 482.876Z" fill="white"/>
<path d="M1221.64 234.3C1222.28 234.977 1223.49 234.977 1224.28 234.225C1225.07 233.51 1225.18 232.344 1224.54 231.629C1223.9 230.952 1222.7 230.952 1221.91 231.704C1221.12 232.419 1221.01 233.585 1221.64 234.3Z" fill="white"/>
<path d="M1505.2 360.133C1504.19 361.035 1504 362.465 1504.79 363.368C1505.58 364.271 1507.05 364.271 1508.06 363.368C1509.08 362.465 1509.26 361.035 1508.48 360.133C1507.69 359.23 1506.22 359.23 1505.2 360.133Z" fill="white"/>
</g>
<g opacity="0.64">
<path d="M31.6209 481.967C32.8241 482.306 33.952 481.553 34.1776 480.275C34.4032 478.996 33.5761 477.679 32.3729 477.34C31.1697 477.002 30.0417 477.754 29.8161 479.033C29.5905 480.312 30.4177 481.629 31.6209 481.967Z" fill="white"/>
</g>
<path d="M1349.53 148.007C1348.43 145.562 1345.8 144.584 1343.62 145.825C1341.44 147.067 1340.58 150.039 1341.67 152.484C1342.76 154.929 1345.39 155.907 1347.57 154.665C1349.75 153.424 1350.62 150.452 1349.53 148.007Z" fill="white"/>
<path d="M1035.71 150.905C1037.26 150.905 1038.46 149.475 1038.46 147.745C1038.46 146.015 1037.18 144.66 1035.68 144.66C1034.13 144.66 1032.93 146.09 1032.93 147.82C1032.93 149.55 1034.21 150.905 1035.71 150.905Z" fill="white"/>
<path d="M1331.6 249.049C1332.62 249.049 1333.44 248.108 1333.4 246.942C1333.4 245.814 1332.54 244.873 1331.52 244.911C1330.51 244.911 1329.68 245.851 1329.72 247.018C1329.72 248.146 1330.58 249.087 1331.6 249.049Z" fill="white"/>
<path d="M706.846 264.469C705.868 262.287 703.499 261.422 701.544 262.513C699.589 263.603 698.837 266.274 699.814 268.456C700.792 270.638 703.161 271.503 705.116 270.412C707.071 269.321 707.823 266.65 706.846 264.469Z" fill="white"/>
<path d="M402.972 535.761C404.1 535.761 405.002 534.708 405.002 533.429C405.002 532.15 404.062 531.134 402.934 531.134C401.806 531.134 400.904 532.188 400.904 533.467C400.904 534.745 401.844 535.761 402.972 535.761Z" fill="white"/>
<path d="M529.626 151.549C531.807 151.549 533.536 149.517 533.499 147.072C533.499 144.627 531.694 142.671 529.513 142.709C527.332 142.746 525.603 144.74 525.64 147.185C525.64 149.63 527.445 151.586 529.626 151.549Z" fill="white"/>
<path d="M152.366 798.1C153.494 798.1 154.396 797.046 154.396 795.768C154.396 794.489 153.456 793.473 152.328 793.473C151.2 793.473 150.298 794.526 150.298 795.805C150.298 797.084 151.238 798.1 152.366 798.1Z" fill="white"/>
<path d="M248.913 391.311C251.094 391.311 252.824 389.28 252.786 386.835C252.786 384.39 250.981 382.434 248.801 382.471C246.62 382.509 244.89 384.503 244.928 386.948C244.928 389.393 246.732 391.349 248.913 391.311Z" fill="white"/>
<g opacity="0.4" filter="url(#filter0_f_6_421)">
<ellipse cx="929.049" cy="29.9556" rx="1473.44" ry="742.648" fill="#633BBC"/>
</g>
<rect opacity="0.8" width="3195.26" height="1617.6" transform="matrix(1 0 0 -1 -638.001 1617.6)" fill="url(#paint0_linear_6_421)"/>
</g>
<defs>
<filter id="filter0_f_6_421" x="-1293.28" y="-1461.58" width="4444.66" height="2983.07" filterUnits="userSpaceOnUse" color-interpolation-filters="sRGB">
<feFlood flood-opacity="0" result="BackgroundImageFix"/>
<feBlend mode="normal" in="SourceGraphic" in2="BackgroundImageFix" result="shape"/>
<feGaussianBlur stdDeviation="374.444" result="effect1_foregroundBlur_6_421"/>
</filter>
<linearGradient id="paint0_linear_6_421" x1="1597.63" y1="0" x2="1597.63" y2="1617.6" gradientUnits="userSpaceOnUse">
<stop stop-color="#121214"/>
<stop offset="1" stop-color="#121214" stop-opacity="0"/>
</linearGradient>
<clipPath id="clip0_6_421">
<rect width="3195.26" height="1348" fill="white" transform="translate(-638)"/>
</clipPath>
</defs>
</svg>
